# xmcd
#
# Track frame offsets:
#	150
#	19659
#	28228
#	40412
#	52745
#	66692
#	81789
#	90942
#	107403
#	119019
#	133671
#	146254
#
# Disc length: 2122 seconds
#
# Revision: 1
# Processed by: cddbd v1.5.2PL0 Copyright (c) Steve Scherf et al.
# Submitted via: audiograbber 1.83.01
#
DISCID=9e08480c
DTITLE=Cowboy Copas - Beyond The Sunset
DYEAR=1963
DGENRE=Gospel
TTITLE0=Beyond The Sunset - 01 - Cowboy Copas - Cowboy's Deck Of Cards
TTITLE1=Beyond The Sunset - 02 - Cowboy Copas - The Man Upstairs
TTITLE2=Beyond The Sunset - 03 - Cowboy Copas - What Will My Answer Be
TTITLE3=Beyond The Sunset - 04 - Cowboy Copas - Family Reunion
TTITLE4=Beyond The Sunset - 05 - Cowboy Copas - The Legend Of The Robin's Red B
TTITLE4=reast
TTITLE5=Beyond The Sunset - 06 - Cowboy Copas - Beyond The Sunset
TTITLE6=Beyond The Sunset - 07 - Cowboy Copas - God Put A Rainbow In The Clouds
TTITLE7=Beyond The Sunset - 08 - Cowboy Copas - A Picture From Life's Other Sid
TTITLE7=e
TTITLE8=Beyond The Sunset - 09 - Cowboy Copas - Shake A Hand
TTITLE9=Beyond The Sunset - 10 - Cowboy Copas - Cowboy's Meditation
TTITLE10=Beyond The Sunset - 11 - Cowboy Copas - Who At My Door Is Standing
TTITLE11=Beyond The Sunset - 12 - Cowboy Copas - The Wreck On The Highway
EXTD=Track list from AOL Music
EXTT0=
EXTT1=
EXTT2=
EXTT3=
EXTT4=
EXTT5=
EXTT6=
EXTT7=
EXTT8=
EXTT9=
EXTT10=
EXTT11=
PLAYORDER=
